<?xml version="1.0" encoding="UTF-8" standalone="no"?>
<!-- Created with Inkscape (http://www.inkscape.org/) -->

<svg
   version="1.1"
   id="svg2"
   xml:space="preserve"
   width="233"
   height="233"
   viewBox="0 0 233 233"
   sodipodi:docname="Dhime.svg"
   inkscape:version="1.3 (1:1.3+202307231459+0e150ed6c4)"
   inkscape:export-filename="/home/ravi/Documents/dhime/logo/fiverr/selected/Dhime_132_117_wb.png"
   inkscape:export-xdpi="54.315407"
   inkscape:export-ydpi="54.315407"
   xmlns:inkscape="http://www.inkscape.org/namespaces/inkscape"
   xmlns:sodipodi="http://sodipodi.sourceforge.net/DTD/sodipodi-0.dtd"
   xmlns="http://www.w3.org/2000/svg"
   xmlns:svg="http://www.w3.org/2000/svg"
   xmlns:rdf="http://www.w3.org/1999/02/22-rdf-syntax-ns#"
   xmlns:cc="http://creativecommons.org/ns#"
   xmlns:dc="http://purl.org/dc/elements/1.1/"><metadata
     id="metadata8"><rdf:RDF><cc:Work
         rdf:about=""><dc:format>image/svg+xml</dc:format><dc:type
           rdf:resource="http://purl.org/dc/dcmitype/StillImage" /><dc:title /></cc:Work></rdf:RDF></metadata><defs
     id="defs6"><clipPath
       clipPathUnits="userSpaceOnUse"
       id="clipPath44-7-3-8-0"><path
         d="m 981.848,1001.888 v -6.139 h 105.589 V 902.57 l 90.451,70.965 -3.789,4.83 -80.523,-63.178 v 86.701 z"
         id="path42-5-6-0-8"
         inkscape:connector-curvature="0" /></clipPath><clipPath
       clipPathUnits="userSpaceOnUse"
       id="clipPath64-3-7-5-6"><path
         d="m 697.473,1146.651 68.613,-74.514 -66.2,-76.388 h 115.379 v 6.139 H 713.329 l 60.989,70.373 -62.847,68.25 H 813.13 v 6.14 z"
         id="path62-56-5-6-2"
         inkscape:connector-curvature="0" /></clipPath><clipPath
       clipPathUnits="userSpaceOnUse"
       id="clipPath84-29-3-6-4"><path
         d="M 1086.845,1146.651 H 981.257 v -6.14 h 111.728 v 90.085 l 79.964,-63.777 3.829,4.798 -89.933,71.728 z"
         id="path82-1-5-4-7"
         inkscape:connector-curvature="0" /></clipPath><clipPath
       clipPathUnits="userSpaceOnUse"
       id="clipPath104-2-6-0-9"><path
         d="m 1210.718,1136.696 81.914,-65.332 -82.434,-64.676 3.789,-4.83 88.541,69.467 -87.983,70.17 z"
         id="path102-7-2-0-3"
         inkscape:connector-curvature="0" /></clipPath><clipPath
       clipPathUnits="userSpaceOnUse"
       id="clipPath124-0-9-4-9"><path
         d="m 1134.159,1099.336 h -68.754 v -6.138 h 74.893 v 39.145 l 76.073,-60.675 -75.481,-59.223 v 36.757 H 980.05 v -6.139 h 154.7 v -43.236 l 91.515,71.8 -92.106,73.464 z"
         id="path122-9-1-6-2"
         inkscape:connector-curvature="0" /></clipPath><clipPath
       clipPathUnits="userSpaceOnUse"
       id="clipPath144-3-2-2-8"><path
         d="m 805.358,1099.336 24.167,-26.246 -26.025,-30.027 h 66.27 v 6.139 h -52.826 l 20.811,24.012 -18.4,19.984 H 1043.3 v 6.138 z"
         id="path142-6-7-6-3"
         inkscape:connector-curvature="0" /></clipPath><clipPath
       clipPathUnits="userSpaceOnUse"
       id="clipPath164-06-0-7-0"><path
         d="m 751.414,1122.993 46.392,-50.379 -46.114,-53.208 h 237.665 v 6.139 H 765.136 l 40.9,47.193 -40.624,44.116 h 101.66 v 6.139 z"
         id="path162-2-9-5-1"
         inkscape:connector-curvature="0" /></clipPath><clipPath
       clipPathUnits="userSpaceOnUse"
       id="clipPath184-61-3-6-7"><path
         d="m 1110.504,1122.993 h -105.589 v -6.139 h 111.727 v 64.615 l 137.861,-109.953 -137.27,-107.699 v 61.728 h -74.894 v -6.139 h 68.755 v -68.207 l 153.304,120.275 -153.894,122.742 z"
         id="path182-8-6-9-8"
         inkscape:connector-curvature="0" /></clipPath><clipPath
       clipPathUnits="userSpaceOnUse"
       id="clipPath204-7-0-8-9"><path
         d="m 806.254,1143.58 c 0,-4.977 4.035,-9.012 9.011,-9.012 v 0 c 4.977,0 9.012,4.035 9.012,9.012 v 0 c 0,4.977 -4.035,9.011 -9.012,9.011 v 0 c -4.976,0 -9.011,-4.034 -9.011,-9.011"
         id="path202-9-6-7-1"
         inkscape:connector-curvature="0" /></clipPath><clipPath
       clipPathUnits="userSpaceOnUse"
       id="clipPath224-20-2-2-5"><path
         d="m 969.592,1143.58 c 0,-4.977 4.035,-9.012 9.012,-9.012 v 0 c 4.977,0 9.012,4.035 9.012,9.012 v 0 c 0,4.977 -4.035,9.011 -9.012,9.011 v 0 c -4.977,0 -9.012,-4.034 -9.012,-9.011"
         id="path222-2-6-8-4"
         inkscape:connector-curvature="0" /></clipPath><clipPath
       clipPathUnits="userSpaceOnUse"
       id="clipPath244-37-1-2-9"><path
         d="m 858.06,1120.621 c 0,-4.977 4.035,-9.011 9.012,-9.011 v 0 c 4.977,0 9.011,4.034 9.011,9.011 v 0 c 0,4.978 -4.034,9.012 -9.011,9.012 v 0 c -4.977,0 -9.012,-4.034 -9.012,-9.012"
         id="path242-5-8-9-2"
         inkscape:connector-curvature="0" /></clipPath><clipPath
       clipPathUnits="userSpaceOnUse"
       id="clipPath264-92-7-9-5"><path
         d="m 997.455,1120.621 c 0,-4.977 4.034,-9.011 9.011,-9.011 v 0 c 4.977,0 9.012,4.034 9.012,9.011 v 0 c 0,4.978 -4.035,9.012 -9.012,9.012 v 0 c -4.977,0 -9.011,-4.034 -9.011,-9.012"
         id="path262-28-9-6-7"
         inkscape:connector-curvature="0" /></clipPath><clipPath
       clipPathUnits="userSpaceOnUse"
       id="clipPath284-9-2-0-4"><path
         d="m 1056.393,1096.805 c 0,-4.977 4.034,-9.012 9.012,-9.012 v 0 c 4.977,0 9.011,4.035 9.011,9.012 v 0 c 0,4.977 -4.034,9.011 -9.011,9.011 v 0 c -4.978,0 -9.012,-4.034 -9.012,-9.011"
         id="path282-7-0-2-9"
         inkscape:connector-curvature="0" /></clipPath><clipPath
       clipPathUnits="userSpaceOnUse"
       id="clipPath304-3-2-7-9"><path
         d="m 1030.216,1096.805 c 0,-4.977 4.034,-9.012 9.011,-9.012 v 0 c 4.977,0 9.012,4.035 9.012,9.012 v 0 c 0,4.977 -4.035,9.011 -9.012,9.011 v 0 c -4.977,0 -9.011,-4.034 -9.011,-9.011"
         id="path302-61-3-6-4"
         inkscape:connector-curvature="0" /></clipPath><clipPath
       clipPathUnits="userSpaceOnUse"
       id="clipPath324-2-7-1-5"><path
         d="m 858.06,1046.812 c 0,-4.977 4.035,-9.012 9.012,-9.012 v 0 c 4.977,0 9.011,4.035 9.011,9.012 v 0 c 0,4.977 -4.034,9.011 -9.011,9.011 v 0 c -4.977,0 -9.012,-4.034 -9.012,-9.011"
         id="path322-9-5-3-9"
         inkscape:connector-curvature="0" /></clipPath><clipPath
       clipPathUnits="userSpaceOnUse"
       id="clipPath344-3-9-2-3"><path
         d="m 972.836,1046.812 c 0,-4.977 4.035,-9.012 9.012,-9.012 v 0 c 4.977,0 9.011,4.035 9.011,9.012 v 0 c 0,4.977 -4.034,9.011 -9.011,9.011 v 0 c -4.977,0 -9.012,-4.034 -9.012,-9.011"
         id="path342-1-2-1-5"
         inkscape:connector-curvature="0" /></clipPath><clipPath
       clipPathUnits="userSpaceOnUse"
       id="clipPath364-9-2-5-7"><path
         d="m 978.604,1023.424 c 0,-4.977 4.035,-9.012 9.012,-9.012 v 0 c 4.977,0 9.012,4.035 9.012,9.012 v 0 c 0,4.977 -4.035,9.012 -9.012,9.012 v 0 c -4.977,0 -9.012,-4.035 -9.012,-9.012"
         id="path362-4-8-9-0"
         inkscape:connector-curvature="0" /></clipPath><clipPath
       clipPathUnits="userSpaceOnUse"
       id="clipPath384-7-9-9-8"><path
         d="m 1033.318,1023.424 c 0,-4.977 4.035,-9.012 9.011,-9.012 v 0 c 4.977,0 9.011,4.035 9.011,9.012 v 0 c 0,4.977 -4.034,9.012 -9.011,9.012 v 0 c -4.976,0 -9.011,-4.035 -9.011,-9.012"
         id="path382-8-7-1-1"
         inkscape:connector-curvature="0" /></clipPath><clipPath
       clipPathUnits="userSpaceOnUse"
       id="clipPath404-45-3-4-9"><path
         d="m 972.836,999.827 c 0,-4.976 4.035,-9.012 9.012,-9.012 v 0 c 4.977,0 9.011,4.036 9.011,9.012 v 0 c 0,4.977 -4.034,9.012 -9.011,9.012 v 0 c -4.977,0 -9.012,-4.035 -9.012,-9.012"
         id="path402-0-6-9-9"
         inkscape:connector-curvature="0" /></clipPath><clipPath
       clipPathUnits="userSpaceOnUse"
       id="clipPath424-3-1-1-7"><path
         d="m 802.417,999.827 c 0,-4.976 4.034,-9.012 9.011,-9.012 v 0 c 4.977,0 9.012,4.036 9.012,9.012 v 0 c 0,4.977 -4.035,9.012 -9.012,9.012 v 0 c -4.977,0 -9.011,-4.035 -9.011,-9.012"
         id="path422-6-2-0-8"
         inkscape:connector-curvature="0" /></clipPath><clipPath
       clipPathUnits="userSpaceOnUse"
       id="clipPath444-1-9-7-2"><path
         d="m 1166.479,1169.332 c 0,-4.977 4.035,-9.012 9.012,-9.012 v 0 c 4.977,0 9.012,4.035 9.012,9.012 v 0 c 0,4.977 -4.035,9.012 -9.012,9.012 v 0 c -4.977,0 -9.012,-4.035 -9.012,-9.012"
         id="path442-0-3-5-5"
         inkscape:connector-curvature="0" /></clipPath><clipPath
       clipPathUnits="userSpaceOnUse"
       id="clipPath464-6-1-8-3"><path
         d="m 1202.954,1139.579 c 0,-4.977 4.035,-9.012 9.012,-9.012 v 0 c 4.977,0 9.012,4.035 9.012,9.012 v 0 c 0,4.977 -4.035,9.012 -9.012,9.012 v 0 c -4.977,0 -9.012,-4.035 -9.012,-9.012"
         id="path462-3-9-7-4"
         inkscape:connector-curvature="0" /></clipPath><clipPath
       clipPathUnits="userSpaceOnUse"
       id="clipPath484-2-4-0-9"><path
         d="m 1202.954,1005.401 c 0,-4.976 4.035,-9.011 9.012,-9.011 v 0 c 4.977,0 9.012,4.035 9.012,9.011 v 0 c 0,4.977 -4.035,9.011 -9.012,9.011 v 0 c -4.977,0 -9.012,-4.034 -9.012,-9.011"
         id="path482-06-7-4-0"
         inkscape:connector-curvature="0" /></clipPath><clipPath
       clipPathUnits="userSpaceOnUse"
       id="clipPath504-1-8-8-2"><path
         d="m 1165.192,974.934 c 0,-4.978 4.035,-9.012 9.011,-9.012 v 0 c 4.977,0 9.012,4.034 9.012,9.012 v 0 c 0,4.976 -4.035,9.01 -9.012,9.01 v 0 c -4.976,0 -9.011,-4.034 -9.011,-9.01"
         id="path502-5-4-0-0"
         inkscape:connector-curvature="0" /></clipPath></defs><sodipodi:namedview
     pagecolor="#323232"
     bordercolor="#000000"
     borderopacity="0"
     objecttolerance="10"
     gridtolerance="10"
     guidetolerance="10"
     inkscape:pageopacity="0"
     inkscape:pageshadow="2"
     inkscape:window-width="2486"
     inkscape:window-height="1016"
     id="namedview4"
     showgrid="false"
     inkscape:pagecheckerboard="true"
     inkscape:zoom="0.76723745"
     inkscape:cx="395.57506"
     inkscape:cy="147.28165"
     inkscape:window-x="74"
     inkscape:window-y="27"
     inkscape:window-maximized="1"
     inkscape:current-layer="g10"
     fit-margin-top="0"
     fit-margin-left="0"
     fit-margin-right="0"
     fit-margin-bottom="0"
     inkscape:showpageshadow="true"
     showborder="false"
     scale-x="0.05"
     units="px"
     inkscape:deskcolor="#d1d1d1"
     inkscape:export-bgcolor="#ffffff00" /><g
     id="g10"
     inkscape:groupmode="layer"
     inkscape:label="Dhime"
     transform="matrix(1.3333333,0,0,-1.3333333,-501.69408,1383.5969)"><rect
       style="fill:#ffffff;fill-opacity:6.58222e-07;stroke:#000000;stroke-width:0.075;stroke-linejoin:round;stroke-miterlimit:4;stroke-dasharray:none;stroke-opacity:6.58222e-07"
       id="rect1361-5-5-4-1"
       width="174.675"
       height="174.67502"
       x="376.30807"
       y="-1037.6602"
       ry="9.3576956"
       inkscape:export-xdpi="210.95279"
       inkscape:export-ydpi="210.95279"
       transform="scale(1,-1)"
       inkscape:export-filename="../../../../../../../ws/newsite/img/dhime_512_512.svg" /><g
       id="g17366-7-6-4-0"
       style="stroke:#323232;stroke-width:0.441872;stroke-opacity:1"
       inkscape:export-xdpi="54.315407"
       inkscape:export-ydpi="54.315407"
       transform="matrix(2.2523741,0,0,2.2738809,202.72446,-1973.5499)"><g
         transform="matrix(0.10359636,0,0,0.10129087,15.316803,1177.0545)"
         style="fill:#323232;fill-opacity:1;stroke:#323232;stroke-width:32.3519;stroke-miterlimit:4;stroke-dasharray:none;stroke-opacity:1"
         id="g40-45-3-2-7"
         clip-path="url(#clipPath44-7-3-8-0)"><g
           style="fill:#323232;fill-opacity:1;stroke:#323232;stroke-width:32.3519;stroke-miterlimit:4;stroke-dasharray:none;stroke-opacity:1"
           id="g46-2-2-2-3"><g
             style="fill:#323232;fill-opacity:1;stroke:#323232;stroke-width:32.3519;stroke-miterlimit:4;stroke-dasharray:none;stroke-opacity:1"
             id="g48-5-0-2-1"><path
               d="m 981.848,1001.888 v -6.139 h 105.589 V 902.57 l 90.451,70.965 -3.789,4.83 -80.523,-63.178 v 86.701 z"
               style="fill:#323232;fill-opacity:1;stroke:#323232;stroke-width:32.3519;stroke-miterlimit:4;stroke-dasharray:none;stroke-opacity:1"
               id="path56-47-6-0-1"
               inkscape:connector-curvature="0" /></g></g></g><g
         transform="matrix(0.10359636,0,0,0.10129087,15.316803,1177.0545)"
         style="fill:#323232;fill-opacity:1;stroke:#323232;stroke-width:32.3519;stroke-miterlimit:4;stroke-dasharray:none;stroke-opacity:1"
         id="g60-4-1-5-9"
         clip-path="url(#clipPath64-3-7-5-6)"><g
           style="fill:#323232;fill-opacity:1;stroke:#323232;stroke-width:32.3519;stroke-miterlimit:4;stroke-dasharray:none;stroke-opacity:1"
           id="g66-43-5-5-0"><g
             style="fill:#323232;fill-opacity:1;stroke:#323232;stroke-width:32.3519;stroke-miterlimit:4;stroke-dasharray:none;stroke-opacity:1"
             id="g68-0-5-2-5"><path
               d="m 697.473,1146.651 68.613,-74.514 -66.2,-76.388 h 115.379 v 6.139 H 713.329 l 60.989,70.373 -62.847,68.25 H 813.13 v 6.14 z"
               style="fill:#323232;fill-opacity:1;stroke:#323232;stroke-width:32.3519;stroke-miterlimit:4;stroke-dasharray:none;stroke-opacity:1"
               id="path76-7-4-9-6"
               inkscape:connector-curvature="0" /></g></g></g><g
         transform="matrix(0.10359636,0,0,0.10129087,15.316803,1177.0545)"
         style="fill:#323232;fill-opacity:1;stroke:#323232;stroke-width:32.3519;stroke-miterlimit:4;stroke-dasharray:none;stroke-opacity:1"
         id="g80-8-7-0-7"
         clip-path="url(#clipPath84-29-3-6-4)"><g
           style="fill:#323232;fill-opacity:1;stroke:#323232;stroke-width:32.3519;stroke-miterlimit:4;stroke-dasharray:none;stroke-opacity:1"
           id="g86-6-6-2-7"><g
             style="fill:#323232;fill-opacity:1;stroke:#323232;stroke-width:32.3519;stroke-miterlimit:4;stroke-dasharray:none;stroke-opacity:1"
             id="g88-8-5-8-4"><path
               d="M 1086.845,1146.651 H 981.257 v -6.14 h 111.728 v 90.085 l 79.964,-63.777 3.829,4.798 -89.933,71.728 z"
               style="fill:#323232;fill-opacity:1;stroke:#323232;stroke-width:32.3519;stroke-miterlimit:4;stroke-dasharray:none;stroke-opacity:1"
               id="path96-8-6-3-0"
               inkscape:connector-curvature="0" /></g></g></g><g
         transform="matrix(0.10359636,0,0,0.10129087,15.316803,1177.0545)"
         style="fill:#323232;fill-opacity:1;stroke:#323232;stroke-width:32.3519;stroke-miterlimit:4;stroke-dasharray:none;stroke-opacity:1"
         id="g100-43-9-8-6"
         clip-path="url(#clipPath104-2-6-0-9)"><g
           style="fill:#323232;fill-opacity:1;stroke:#323232;stroke-width:32.3519;stroke-miterlimit:4;stroke-dasharray:none;stroke-opacity:1"
           id="g106-1-3-0-4"><g
             style="fill:#323232;fill-opacity:1;stroke:#323232;stroke-width:32.3519;stroke-miterlimit:4;stroke-dasharray:none;stroke-opacity:1"
             id="g108-4-7-4-7"><path
               d="m 1210.718,1136.696 81.914,-65.332 -82.434,-64.676 3.789,-4.83 88.541,69.467 -87.983,70.17 z"
               style="fill:#323232;fill-opacity:1;stroke:#323232;stroke-width:32.3519;stroke-miterlimit:4;stroke-dasharray:none;stroke-opacity:1"
               id="path116-9-4-0-4"
               inkscape:connector-curvature="0" /></g></g></g><g
         transform="matrix(0.10359636,0,0,0.10129087,15.316803,1177.0545)"
         style="fill:#323232;fill-opacity:1;stroke:#323232;stroke-width:32.3519;stroke-miterlimit:4;stroke-dasharray:none;stroke-opacity:1"
         id="g120-2-5-9-8"
         clip-path="url(#clipPath124-0-9-4-9)"><g
           style="fill:#323232;fill-opacity:1;stroke:#323232;stroke-width:32.3519;stroke-miterlimit:4;stroke-dasharray:none;stroke-opacity:1"
           id="g126-0-2-1-5"><g
             style="fill:#323232;fill-opacity:1;stroke:#323232;stroke-width:32.3519;stroke-miterlimit:4;stroke-dasharray:none;stroke-opacity:1"
             id="g128-6-5-9-8"><path
               d="m 1134.159,1099.336 h -68.754 v -6.138 h 74.893 v 39.145 l 76.073,-60.675 -75.481,-59.223 v 36.757 H 980.05 v -6.139 h 154.7 v -43.236 l 91.515,71.8 -92.106,73.464 z"
               style="fill:#323232;fill-opacity:1;stroke:#323232;stroke-width:32.3519;stroke-miterlimit:4;stroke-dasharray:none;stroke-opacity:1"
               id="path136-8-4-6-2"
               inkscape:connector-curvature="0" /></g></g></g><g
         transform="matrix(0.10359636,0,0,0.10129087,15.316803,1177.0545)"
         style="fill:#323232;fill-opacity:1;stroke:#323232;stroke-width:32.3519;stroke-miterlimit:4;stroke-dasharray:none;stroke-opacity:1"
         id="g140-92-7-2-6"
         clip-path="url(#clipPath144-3-2-2-8)"><g
           style="fill:#323232;fill-opacity:1;stroke:#323232;stroke-width:32.3519;stroke-miterlimit:4;stroke-dasharray:none;stroke-opacity:1"
           id="g146-6-4-5-0"><g
             style="fill:#323232;fill-opacity:1;stroke:#323232;stroke-width:32.3519;stroke-miterlimit:4;stroke-dasharray:none;stroke-opacity:1"
             id="g148-6-4-4-6"><path
               d="m 805.358,1099.336 24.167,-26.246 -26.025,-30.027 h 66.27 v 6.139 h -52.826 l 20.811,24.012 -18.4,19.984 H 1043.3 v 6.138 z"
               style="fill:#323232;fill-opacity:1;stroke:#323232;stroke-width:32.3519;stroke-miterlimit:4;stroke-dasharray:none;stroke-opacity:1"
               id="path156-4-3-4-6"
               inkscape:connector-curvature="0" /></g></g></g><g
         transform="matrix(0.10359636,0,0,0.10129087,15.316803,1177.0545)"
         style="fill:#323232;fill-opacity:1;stroke:#323232;stroke-width:32.3519;stroke-miterlimit:4;stroke-dasharray:none;stroke-opacity:1"
         id="g160-95-0-9-4"
         clip-path="url(#clipPath164-06-0-7-0)"><g
           style="fill:#323232;fill-opacity:1;stroke:#323232;stroke-width:32.3519;stroke-miterlimit:4;stroke-dasharray:none;stroke-opacity:1"
           id="g166-0-7-9-6"><g
             style="fill:#323232;fill-opacity:1;stroke:#323232;stroke-width:32.3519;stroke-miterlimit:4;stroke-dasharray:none;stroke-opacity:1"
             id="g168-4-8-3-2"><path
               d="m 751.414,1122.993 46.392,-50.379 -46.114,-53.208 h 237.665 v 6.139 H 765.136 l 40.9,47.193 -40.624,44.116 h 101.66 v 6.139 z"
               style="fill:#323232;fill-opacity:1;stroke:#323232;stroke-width:32.3519;stroke-miterlimit:4;stroke-dasharray:none;stroke-opacity:1"
               id="path176-8-6-6-8"
               inkscape:connector-curvature="0" /></g></g></g><g
         transform="matrix(0.10359636,0,0,0.10129087,15.316803,1177.0545)"
         style="fill:#323232;fill-opacity:1;stroke:#323232;stroke-width:32.3519;stroke-miterlimit:4;stroke-dasharray:none;stroke-opacity:1"
         id="g180-71-8-0-9"
         clip-path="url(#clipPath184-61-3-6-7)"><g
           style="fill:#323232;fill-opacity:1;stroke:#323232;stroke-width:32.3519;stroke-miterlimit:4;stroke-dasharray:none;stroke-opacity:1"
           id="g186-7-8-5-6"><g
             style="fill:#323232;fill-opacity:1;stroke:#323232;stroke-width:32.3519;stroke-miterlimit:4;stroke-dasharray:none;stroke-opacity:1"
             id="g188-27-4-0-0"><path
               d="m 1110.504,1122.993 h -105.589 v -6.139 h 111.727 v 64.615 l 137.861,-109.953 -137.27,-107.699 v 61.728 h -74.894 v -6.139 h 68.755 v -68.207 l 153.304,120.275 -153.894,122.742 z"
               style="fill:#323232;fill-opacity:1;stroke:#323232;stroke-width:32.3519;stroke-miterlimit:4;stroke-dasharray:none;stroke-opacity:1"
               id="path196-2-3-2-7"
               inkscape:connector-curvature="0" /></g></g></g><g
         transform="matrix(0.10359636,0,0,0.10129087,15.316803,1177.0545)"
         style="fill:#323232;fill-opacity:1;stroke:#323232;stroke-width:32.3519;stroke-miterlimit:4;stroke-dasharray:none;stroke-opacity:1"
         id="g200-2-1-9-0"
         clip-path="url(#clipPath204-7-0-8-9)"><g
           style="fill:#323232;fill-opacity:1;stroke:#323232;stroke-width:32.3519;stroke-miterlimit:4;stroke-dasharray:none;stroke-opacity:1"
           id="g206-6-4-4-1"><g
             style="fill:#323232;fill-opacity:1;stroke:#323232;stroke-width:32.3519;stroke-miterlimit:4;stroke-dasharray:none;stroke-opacity:1"
             id="g208-10-9-3-0"><path
               d="m 806.254,1143.58 c 0,-4.977 4.035,-9.012 9.011,-9.012 v 0 c 4.977,0 9.012,4.035 9.012,9.012 v 0 c 0,4.977 -4.035,9.011 -9.012,9.011 v 0 c -4.976,0 -9.011,-4.034 -9.011,-9.011"
               style="fill:#323232;fill-opacity:1;stroke:#323232;stroke-width:32.3519;stroke-miterlimit:4;stroke-dasharray:none;stroke-opacity:1"
               id="path216-6-2-5-1"
               inkscape:connector-curvature="0" /></g></g></g><g
         transform="matrix(0.10359636,0,0,0.10129087,15.316803,1177.0545)"
         style="fill:#323232;fill-opacity:1;stroke:#323232;stroke-width:32.3519;stroke-miterlimit:4;stroke-dasharray:none;stroke-opacity:1"
         id="g220-1-0-1-3"
         clip-path="url(#clipPath224-20-2-2-5)"><g
           style="fill:#323232;fill-opacity:1;stroke:#323232;stroke-width:32.3519;stroke-miterlimit:4;stroke-dasharray:none;stroke-opacity:1"
           id="g226-5-6-7-7"><g
             style="fill:#323232;fill-opacity:1;stroke:#323232;stroke-width:32.3519;stroke-miterlimit:4;stroke-dasharray:none;stroke-opacity:1"
             id="g228-9-8-4-7"><path
               d="m 969.592,1143.58 c 0,-4.977 4.035,-9.012 9.012,-9.012 v 0 c 4.977,0 9.012,4.035 9.012,9.012 v 0 c 0,4.977 -4.035,9.011 -9.012,9.011 v 0 c -4.977,0 -9.012,-4.034 -9.012,-9.011"
               style="fill:#323232;fill-opacity:1;stroke:#323232;stroke-width:32.3519;stroke-miterlimit:4;stroke-dasharray:none;stroke-opacity:1"
               id="path236-4-9-3-2"
               inkscape:connector-curvature="0" /></g></g></g><g
         transform="matrix(0.10359636,0,0,0.10129087,15.316803,1177.0545)"
         style="fill:#323232;fill-opacity:1;stroke:#323232;stroke-width:32.3519;stroke-miterlimit:4;stroke-dasharray:none;stroke-opacity:1"
         id="g240-90-2-1-6"
         clip-path="url(#clipPath244-37-1-2-9)"><g
           style="fill:#323232;fill-opacity:1;stroke:#323232;stroke-width:32.3519;stroke-miterlimit:4;stroke-dasharray:none;stroke-opacity:1"
           id="g246-91-6-4-4"><g
             style="fill:#323232;fill-opacity:1;stroke:#323232;stroke-width:32.3519;stroke-miterlimit:4;stroke-dasharray:none;stroke-opacity:1"
             id="g248-7-6-6-5"><path
               d="m 858.06,1120.621 c 0,-4.977 4.035,-9.011 9.012,-9.011 v 0 c 4.977,0 9.011,4.034 9.011,9.011 v 0 c 0,4.978 -4.034,9.012 -9.011,9.012 v 0 c -4.977,0 -9.012,-4.034 -9.012,-9.012"
               style="fill:#323232;fill-opacity:1;stroke:#323232;stroke-width:32.3519;stroke-miterlimit:4;stroke-dasharray:none;stroke-opacity:1"
               id="path256-7-4-9-2"
               inkscape:connector-curvature="0" /></g></g></g><g
         transform="matrix(0.10359636,0,0,0.10129087,15.316803,1177.0545)"
         style="fill:#323232;fill-opacity:1;stroke:#323232;stroke-width:32.3519;stroke-miterlimit:4;stroke-dasharray:none;stroke-opacity:1"
         id="g260-1-9-4-0"
         clip-path="url(#clipPath264-92-7-9-5)"><g
           style="fill:#323232;fill-opacity:1;stroke:#323232;stroke-width:32.3519;stroke-miterlimit:4;stroke-dasharray:none;stroke-opacity:1"
           id="g266-1-5-2-2"><g
             style="fill:#323232;fill-opacity:1;stroke:#323232;stroke-width:32.3519;stroke-miterlimit:4;stroke-dasharray:none;stroke-opacity:1"
             id="g268-5-0-2-9"><path
               d="m 997.455,1120.621 c 0,-4.977 4.034,-9.011 9.011,-9.011 v 0 c 4.977,0 9.012,4.034 9.012,9.011 v 0 c 0,4.978 -4.035,9.012 -9.012,9.012 v 0 c -4.977,0 -9.011,-4.034 -9.011,-9.012"
               style="fill:#323232;fill-opacity:1;stroke:#323232;stroke-width:32.3519;stroke-miterlimit:4;stroke-dasharray:none;stroke-opacity:1"
               id="path276-9-4-6-0"
               inkscape:connector-curvature="0" /></g></g></g><g
         transform="matrix(0.10359636,0,0,0.10129087,15.316803,1177.0545)"
         style="fill:#323232;fill-opacity:1;stroke:#323232;stroke-width:32.3519;stroke-miterlimit:4;stroke-dasharray:none;stroke-opacity:1"
         id="g280-77-8-4-9"
         clip-path="url(#clipPath284-9-2-0-4)"><g
           style="fill:#323232;fill-opacity:1;stroke:#323232;stroke-width:32.3519;stroke-miterlimit:4;stroke-dasharray:none;stroke-opacity:1"
           id="g286-6-7-1-9"><g
             style="fill:#323232;fill-opacity:1;stroke:#323232;stroke-width:32.3519;stroke-miterlimit:4;stroke-dasharray:none;stroke-opacity:1"
             id="g288-7-1-2-4"><path
               d="m 1056.393,1096.805 c 0,-4.977 4.034,-9.012 9.012,-9.012 v 0 c 4.977,0 9.011,4.035 9.011,9.012 v 0 c 0,4.977 -4.034,9.011 -9.011,9.011 v 0 c -4.978,0 -9.012,-4.034 -9.012,-9.011"
               style="fill:#323232;fill-opacity:1;stroke:#323232;stroke-width:32.3519;stroke-miterlimit:4;stroke-dasharray:none;stroke-opacity:1"
               id="path296-3-7-8-5"
               inkscape:connector-curvature="0" /></g></g></g><g
         transform="matrix(0.10359636,0,0,0.10129087,15.316803,1177.0545)"
         style="fill:#323232;fill-opacity:1;stroke:#323232;stroke-width:32.3519;stroke-miterlimit:4;stroke-dasharray:none;stroke-opacity:1"
         id="g300-6-2-8-1"
         clip-path="url(#clipPath304-3-2-7-9)"><g
           style="fill:#323232;fill-opacity:1;stroke:#323232;stroke-width:32.3519;stroke-miterlimit:4;stroke-dasharray:none;stroke-opacity:1"
           id="g306-5-7-9-0"><g
             style="fill:#323232;fill-opacity:1;stroke:#323232;stroke-width:32.3519;stroke-miterlimit:4;stroke-dasharray:none;stroke-opacity:1"
             id="g308-63-2-2-3"><path
               d="m 1030.216,1096.805 c 0,-4.977 4.034,-9.012 9.011,-9.012 v 0 c 4.977,0 9.012,4.035 9.012,9.012 v 0 c 0,4.977 -4.035,9.011 -9.012,9.011 v 0 c -4.977,0 -9.011,-4.034 -9.011,-9.011"
               style="fill:#323232;fill-opacity:1;stroke:#323232;stroke-width:32.3519;stroke-miterlimit:4;stroke-dasharray:none;stroke-opacity:1"
               id="path316-9-2-8-7"
               inkscape:connector-curvature="0" /></g></g></g><g
         transform="matrix(0.10359636,0,0,0.10129087,15.316803,1177.0545)"
         style="fill:#323232;fill-opacity:1;stroke:#323232;stroke-width:32.3519;stroke-miterlimit:4;stroke-dasharray:none;stroke-opacity:1"
         id="g320-4-6-8-8"
         clip-path="url(#clipPath324-2-7-1-5)"><g
           style="fill:#323232;fill-opacity:1;stroke:#323232;stroke-width:32.3519;stroke-miterlimit:4;stroke-dasharray:none;stroke-opacity:1"
           id="g326-81-1-8-8"><g
             style="fill:#323232;fill-opacity:1;stroke:#323232;stroke-width:32.3519;stroke-miterlimit:4;stroke-dasharray:none;stroke-opacity:1"
             id="g328-29-0-6-6"><path
               d="m 858.06,1046.812 c 0,-4.977 4.035,-9.012 9.012,-9.012 v 0 c 4.977,0 9.011,4.035 9.011,9.012 v 0 c 0,4.977 -4.034,9.011 -9.011,9.011 v 0 c -4.977,0 -9.012,-4.034 -9.012,-9.011"
               style="fill:#323232;fill-opacity:1;stroke:#323232;stroke-width:32.3519;stroke-miterlimit:4;stroke-dasharray:none;stroke-opacity:1"
               id="path336-39-6-8-0"
               inkscape:connector-curvature="0" /></g></g></g><g
         transform="matrix(0.10359636,0,0,0.10129087,15.316803,1177.0545)"
         style="fill:#323232;fill-opacity:1;stroke:#323232;stroke-width:32.3519;stroke-miterlimit:4;stroke-dasharray:none;stroke-opacity:1"
         id="g340-0-1-3-4"
         clip-path="url(#clipPath344-3-9-2-3)"><g
           style="fill:#323232;fill-opacity:1;stroke:#323232;stroke-width:32.3519;stroke-miterlimit:4;stroke-dasharray:none;stroke-opacity:1"
           id="g346-88-5-8-6"><g
             style="fill:#323232;fill-opacity:1;stroke:#323232;stroke-width:32.3519;stroke-miterlimit:4;stroke-dasharray:none;stroke-opacity:1"
             id="g348-5-9-3-7"><path
               d="m 972.836,1046.812 c 0,-4.977 4.035,-9.012 9.012,-9.012 v 0 c 4.977,0 9.011,4.035 9.011,9.012 v 0 c 0,4.977 -4.034,9.011 -9.011,9.011 v 0 c -4.977,0 -9.012,-4.034 -9.012,-9.011"
               style="fill:#323232;fill-opacity:1;stroke:#323232;stroke-width:32.3519;stroke-miterlimit:4;stroke-dasharray:none;stroke-opacity:1"
               id="path356-0-4-3-6"
               inkscape:connector-curvature="0" /></g></g></g><g
         transform="matrix(0.10359636,0,0,0.10129087,15.316803,1177.0545)"
         style="fill:#323232;fill-opacity:1;stroke:#323232;stroke-width:32.3519;stroke-miterlimit:4;stroke-dasharray:none;stroke-opacity:1"
         id="g360-9-9-3-0"
         clip-path="url(#clipPath364-9-2-5-7)"><g
           style="fill:#323232;fill-opacity:1;stroke:#323232;stroke-width:32.3519;stroke-miterlimit:4;stroke-dasharray:none;stroke-opacity:1"
           id="g366-6-0-8-9"><g
             style="fill:#323232;fill-opacity:1;stroke:#323232;stroke-width:32.3519;stroke-miterlimit:4;stroke-dasharray:none;stroke-opacity:1"
             id="g368-3-9-0-7"><path
               d="m 978.604,1023.424 c 0,-4.977 4.035,-9.012 9.012,-9.012 v 0 c 4.977,0 9.012,4.035 9.012,9.012 v 0 c 0,4.977 -4.035,9.012 -9.012,9.012 v 0 c -4.977,0 -9.012,-4.035 -9.012,-9.012"
               style="fill:#323232;fill-opacity:1;stroke:#323232;stroke-width:32.3519;stroke-miterlimit:4;stroke-dasharray:none;stroke-opacity:1"
               id="path376-85-1-4-5"
               inkscape:connector-curvature="0" /></g></g></g><g
         transform="matrix(0.10359636,0,0,0.10129087,15.316803,1177.0545)"
         style="fill:#323232;fill-opacity:1;stroke:#323232;stroke-width:32.3519;stroke-miterlimit:4;stroke-dasharray:none;stroke-opacity:1"
         id="g380-6-7-7-9"
         clip-path="url(#clipPath384-7-9-9-8)"><g
           style="fill:#323232;fill-opacity:1;stroke:#323232;stroke-width:32.3519;stroke-miterlimit:4;stroke-dasharray:none;stroke-opacity:1"
           id="g386-11-7-6-7"><g
             style="fill:#323232;fill-opacity:1;stroke:#323232;stroke-width:32.3519;stroke-miterlimit:4;stroke-dasharray:none;stroke-opacity:1"
             id="g388-5-1-8-8"><path
               d="m 1033.318,1023.424 c 0,-4.977 4.035,-9.012 9.011,-9.012 v 0 c 4.977,0 9.011,4.035 9.011,9.012 v 0 c 0,4.977 -4.034,9.012 -9.011,9.012 v 0 c -4.976,0 -9.011,-4.035 -9.011,-9.012"
               style="fill:#323232;fill-opacity:1;stroke:#323232;stroke-width:32.3519;stroke-miterlimit:4;stroke-dasharray:none;stroke-opacity:1"
               id="path396-9-1-9-5"
               inkscape:connector-curvature="0" /></g></g></g><g
         transform="matrix(0.10359636,0,0,0.10129087,15.316803,1177.0545)"
         style="fill:#323232;fill-opacity:1;stroke:#323232;stroke-width:32.3519;stroke-miterlimit:4;stroke-dasharray:none;stroke-opacity:1"
         id="g400-84-5-0-3"
         clip-path="url(#clipPath404-45-3-4-9)"><g
           style="fill:#323232;fill-opacity:1;stroke:#323232;stroke-width:32.3519;stroke-miterlimit:4;stroke-dasharray:none;stroke-opacity:1"
           id="g406-8-9-6-3"><g
             style="fill:#323232;fill-opacity:1;stroke:#323232;stroke-width:32.3519;stroke-miterlimit:4;stroke-dasharray:none;stroke-opacity:1"
             id="g408-1-7-8-8"><path
               d="m 972.836,999.827 c 0,-4.976 4.035,-9.012 9.012,-9.012 v 0 c 4.977,0 9.011,4.036 9.011,9.012 v 0 c 0,4.977 -4.034,9.012 -9.011,9.012 v 0 c -4.977,0 -9.012,-4.035 -9.012,-9.012"
               style="fill:#323232;fill-opacity:1;stroke:#323232;stroke-width:32.3519;stroke-miterlimit:4;stroke-dasharray:none;stroke-opacity:1"
               id="path416-0-7-7-3"
               inkscape:connector-curvature="0" /></g></g></g><g
         transform="matrix(0.10359636,0,0,0.10129087,15.316803,1177.0545)"
         style="fill:#323232;fill-opacity:1;stroke:#323232;stroke-width:32.3519;stroke-miterlimit:4;stroke-dasharray:none;stroke-opacity:1"
         id="g420-3-6-9-7"
         clip-path="url(#clipPath424-3-1-1-7)"><g
           style="fill:#323232;fill-opacity:1;stroke:#323232;stroke-width:32.3519;stroke-miterlimit:4;stroke-dasharray:none;stroke-opacity:1"
           id="g426-04-7-0-9"><g
             style="fill:#323232;fill-opacity:1;stroke:#323232;stroke-width:32.3519;stroke-miterlimit:4;stroke-dasharray:none;stroke-opacity:1"
             id="g428-44-3-3-3"><path
               d="m 802.417,999.827 c 0,-4.976 4.034,-9.012 9.011,-9.012 v 0 c 4.977,0 9.012,4.036 9.012,9.012 v 0 c 0,4.977 -4.035,9.012 -9.012,9.012 v 0 c -4.977,0 -9.011,-4.035 -9.011,-9.012"
               style="fill:#323232;fill-opacity:1;stroke:#323232;stroke-width:32.3519;stroke-miterlimit:4;stroke-dasharray:none;stroke-opacity:1"
               id="path436-47-6-3-7"
               inkscape:connector-curvature="0" /></g></g></g><g
         transform="matrix(0.10359636,0,0,0.10129087,15.316803,1177.0545)"
         style="fill:#323232;fill-opacity:1;stroke:#323232;stroke-width:32.3519;stroke-miterlimit:4;stroke-dasharray:none;stroke-opacity:1"
         id="g440-6-5-3-8"
         clip-path="url(#clipPath444-1-9-7-2)"><g
           style="fill:#323232;fill-opacity:1;stroke:#323232;stroke-width:32.3519;stroke-miterlimit:4;stroke-dasharray:none;stroke-opacity:1"
           id="g446-3-6-7-7"><g
             style="fill:#323232;fill-opacity:1;stroke:#323232;stroke-width:32.3519;stroke-miterlimit:4;stroke-dasharray:none;stroke-opacity:1"
             id="g448-1-3-3-4"><path
               d="m 1166.479,1169.332 c 0,-4.977 4.035,-9.012 9.012,-9.012 v 0 c 4.977,0 9.012,4.035 9.012,9.012 v 0 c 0,4.977 -4.035,9.012 -9.012,9.012 v 0 c -4.977,0 -9.012,-4.035 -9.012,-9.012"
               style="fill:#323232;fill-opacity:1;stroke:#323232;stroke-width:32.3519;stroke-miterlimit:4;stroke-dasharray:none;stroke-opacity:1"
               id="path456-7-9-2-1"
               inkscape:connector-curvature="0" /></g></g></g><g
         transform="matrix(0.10359636,0,0,0.10129087,15.316803,1177.0545)"
         style="fill:#323232;fill-opacity:1;stroke:#323232;stroke-width:32.3519;stroke-miterlimit:4;stroke-dasharray:none;stroke-opacity:1"
         id="g460-5-4-6-9"
         clip-path="url(#clipPath464-6-1-8-3)"><g
           style="fill:#323232;fill-opacity:1;stroke:#323232;stroke-width:32.3519;stroke-miterlimit:4;stroke-dasharray:none;stroke-opacity:1"
           id="g466-96-8-5-0"><g
             style="fill:#323232;fill-opacity:1;stroke:#323232;stroke-width:32.3519;stroke-miterlimit:4;stroke-dasharray:none;stroke-opacity:1"
             id="g468-21-1-2-9"><path
               d="m 1202.954,1139.579 c 0,-4.977 4.035,-9.012 9.012,-9.012 v 0 c 4.977,0 9.012,4.035 9.012,9.012 v 0 c 0,4.977 -4.035,9.012 -9.012,9.012 v 0 c -4.977,0 -9.012,-4.035 -9.012,-9.012"
               style="fill:#323232;fill-opacity:1;stroke:#323232;stroke-width:32.3519;stroke-miterlimit:4;stroke-dasharray:none;stroke-opacity:1"
               id="path476-78-2-6-8"
               inkscape:connector-curvature="0" /></g></g></g><g
         transform="matrix(0.10359636,0,0,0.10129087,15.316803,1177.0545)"
         style="fill:#323232;fill-opacity:1;stroke:#323232;stroke-width:32.3519;stroke-miterlimit:4;stroke-dasharray:none;stroke-opacity:1"
         id="g480-5-9-5-8"
         clip-path="url(#clipPath484-2-4-0-9)"><g
           style="fill:#323232;fill-opacity:1;stroke:#323232;stroke-width:32.3519;stroke-miterlimit:4;stroke-dasharray:none;stroke-opacity:1"
           id="g486-74-3-8-5"><g
             style="fill:#323232;fill-opacity:1;stroke:#323232;stroke-width:32.3519;stroke-miterlimit:4;stroke-dasharray:none;stroke-opacity:1"
             id="g488-1-9-7-8"><path
               d="m 1202.954,1005.401 c 0,-4.976 4.035,-9.011 9.012,-9.011 v 0 c 4.977,0 9.012,4.035 9.012,9.011 v 0 c 0,4.977 -4.035,9.011 -9.012,9.011 v 0 c -4.977,0 -9.012,-4.034 -9.012,-9.011"
               style="fill:#323232;fill-opacity:1;stroke:#323232;stroke-width:32.3519;stroke-miterlimit:4;stroke-dasharray:none;stroke-opacity:1"
               id="path496-8-0-9-4"
               inkscape:connector-curvature="0" /></g></g></g><g
         transform="matrix(0.10359636,0,0,0.10129087,15.316803,1177.0545)"
         style="fill:#323232;fill-opacity:1;stroke:#323232;stroke-width:32.3519;stroke-miterlimit:4;stroke-dasharray:none;stroke-opacity:1"
         id="g500-59-8-6-3"
         clip-path="url(#clipPath504-1-8-8-2)"><g
           style="fill:#323232;fill-opacity:1;stroke:#323232;stroke-width:32.3519;stroke-miterlimit:4;stroke-dasharray:none;stroke-opacity:1"
           id="g506-7-8-0-7"><g
             style="fill:#323232;fill-opacity:1;stroke:#323232;stroke-width:32.3519;stroke-miterlimit:4;stroke-dasharray:none;stroke-opacity:1"
             id="g508-53-5-4-1"><path
               d="m 1165.192,974.934 c 0,-4.978 4.035,-9.012 9.011,-9.012 v 0 c 4.977,0 9.012,4.034 9.012,9.012 v 0 c 0,4.976 -4.035,9.01 -9.012,9.01 v 0 c -4.976,0 -9.011,-4.034 -9.011,-9.01"
               style="fill:#323232;fill-opacity:1;stroke:#323232;stroke-width:32.3519;stroke-miterlimit:4;stroke-dasharray:none;stroke-opacity:1"
               id="path516-88-0-1-3"
               inkscape:connector-curvature="0" /></g></g></g></g><g
       id="g30950-3-9-0-8"
       style="fill:#c86432;fill-opacity:1;stroke-width:0.441872"
       inkscape:export-xdpi="54.315407"
       inkscape:export-ydpi="54.315407"
       transform="matrix(2.2523741,0,0,2.2738809,202.72446,-1973.5499)"><path
         d="m 126.9517,1285.4133 c -0.2246,2.5706 -1.84712,4.0134 -4.44055,4.4194 -0.88347,0.1384 -1.75265,0.3991 -2.60763,0.6674 -1.34799,0.423 -1.93528,1.3905 -2.02116,2.6987 0.70269,0.6842 1.38591,1.7037 1.80496,3.219 0.20056,0.062 0.49052,0.2229 0.729,0.6332 0.0563,0.097 0.11023,0.2079 0.15944,0.3347 0.058,0.1535 0.11033,0.3307 0.15146,0.5339 l 0.007,0.035 c 0.0371,0.1811 0.0726,0.3575 0.10474,0.5276 0.0209,0.1141 0.0411,0.2259 0.0597,0.3339 0.0547,0.3276 0.0933,0.6292 0.10391,0.8961 0.006,0.1189 0.005,0.2308 -0.002,0.3347 -0.0233,0.367 -0.12566,0.6434 -0.34632,0.8025 -0.0668,0.048 -0.13934,0.083 -0.21828,0.1031 -0.1152,0.031 -0.24407,0.032 -0.38662,0 0.0105,0.098 0.0194,0.2094 0.0275,0.3316 0.0129,0.2205 0.0201,0.4764 0.0129,0.7567 -0.004,0.1458 -0.012,0.2969 -0.025,0.4536 -0.0579,0.6876 -0.21579,1.464 -0.57589,2.1806 -0.0653,0.13 -0.13685,0.2583 -0.21662,0.3836 -0.12566,0.1991 -0.2707,0.3921 -0.43573,0.5733 -0.69668,0.7662 -1.65754,1.2237 -2.86899,1.3686 h -8.3e-4 c -0.17705,0.021 -0.35917,0.035 -0.54678,0.043 -0.29401,0.012 -0.60086,0.01 -0.92066,-0.013 -0.62334,0.04 -1.19841,0.017 -1.72364,-0.067 -0.13043,-0.021 -0.25847,-0.046 -0.38258,-0.075 -0.006,-8e-4 -0.0113,0 -0.0169,0 -0.0201,0 -0.0402,-0.01 -0.0596,-0.014 -0.43096,-0.1064 -0.824,-0.2599 -1.17675,-0.46 -0.15384,-0.087 -0.30043,-0.1826 -0.43893,-0.2873 -0.19487,-0.1466 -0.37451,-0.3111 -0.53964,-0.4922 -0.53155,-0.5843 -0.84814,-1.2797 -1.03016,-1.9681 -0.14493,-0.5496 -0.20533,-1.0937 -0.22066,-1.5733 -0.002,-0.057 -0.003,-0.1127 -0.004,-0.1678 -8.3e-4,-0.057 -8.3e-4,-0.1126 -8.3e-4,-0.1669 0.002,-0.1702 0.007,-0.3285 0.0162,-0.4717 0.008,-0.1222 0.0169,-0.2331 0.0273,-0.3316 -0.14255,0.028 -0.27142,0.028 -0.38745,0 -0.0788,-0.02 -0.15135,-0.055 -0.21817,-0.1031 -0.22077,-0.1591 -0.32219,-0.4355 -0.3456,-0.8025 -0.008,-0.1039 -0.008,-0.2158 -0.002,-0.3339 0.0105,-0.2677 0.0483,-0.5685 0.1039,-0.8969 0.0177,-0.1087 0.0378,-0.2198 0.0587,-0.3339 0.0322,-0.1701 0.0676,-0.3465 0.10474,-0.5276 l 0.007,-0.035 c 0.0418,-0.2032 0.0934,-0.3804 0.15229,-0.5339 0.049,-0.1268 0.10297,-0.2379 0.1586,-0.3347 0.23921,-0.4103 0.52917,-0.571 0.72974,-0.6332 0.41521,-1.503 1.09087,-2.5181 1.78755,-3.2022 -0.10515,-1.197 -0.87508,-2.2772 -2.1575,-2.7296 -0.78619,-0.2773 -1.60129,-0.5748 -2.42229,-0.6418 -3.05226,-0.2496 -4.3931,-2.5033 -4.54871,-4.523 -0.18678,-2.4233 -2.542561,-16.494 -2.764154,-17.8985 h 5.318014 c 0.52006,1.5314 1.22617,6.9768 1.46092,8.0462 0.0994,-0.012 0.80504,-7.6094 0.78785,-8.0462 h 15.49926 c -10e-4,2.0163 0.26862,7.3787 0.33306,8.042 0.57247,-3.6451 1.79636,-7.8716 1.86069,-8.042 h 5.23348 c -0.16057,1.0478 -2.53521,15.5706 -2.74675,17.9906"
         style="fill:#c86432;fill-opacity:1;fill-rule:nonzero;stroke:none;stroke-width:0.331403;stroke-miterlimit:4;stroke-dasharray:none;stroke-opacity:1"
         id="path528-1-6-4-0"
         inkscape:connector-curvature="0" /><path
         inkscape:connector-curvature="0"
         id="path530-89-3-8-9"
         style="fill:#c86432;fill-opacity:1;fill-rule:nonzero;stroke:none;stroke-width:0.331403;stroke-miterlimit:4;stroke-dasharray:none;stroke-opacity:1"
         d="M 133.19698,1266.8279 H 95.603625 v 1.0084 h 37.593355 z" /></g></g></svg>
